<svg width="12" height="12" viewBox="0 0 12 12" fill="none" xmlns="http://www.w3.org/2000/svg">
<g clip-path="url(#clip0)">
<path d="M11.9999 11.2569C11.9997 11.1546 11.9786 11.0535 11.9378 10.9597C11.897 10.8659 11.8374 10.7816 11.7627 10.7117L7.05565 6.00473L11.7627 1.29773C11.8363 1.22932 11.8954 1.14678 11.9365 1.05503C11.9776 0.963279 11.9998 0.8642 12.0017 0.763696C12.0037 0.663192 11.9854 0.56332 11.948 0.470031C11.9105 0.376743 11.8547 0.291948 11.7838 0.220699C11.7129 0.149451 11.6283 0.0932073 11.5352 0.0553208C11.4421 0.0174343 11.3423 -0.00131974 11.2418 0.000176288C11.1413 0.00167231 11.0421 0.0233878 10.9502 0.0640286C10.8582 0.104669 10.7754 0.163404 10.7067 0.236731L5.99965 4.94373L1.29265 0.236731C1.2242 0.163549 1.14172 0.104887 1.05012 0.0642358C0.958529 0.0235843 0.859693 0.00177433 0.759497 0.000103825C0.659302 -0.00156668 0.559794 0.0169364 0.466896 0.0545119C0.373998 0.0920875 0.289608 0.147967 0.218749 0.218826C0.14789 0.289685 0.0920103 0.374075 0.0544348 0.466973C0.0168593 0.559871 -0.00164384 0.659379 2.66691e-05 0.759575C0.00169718 0.85977 0.0235071 0.958606 0.0641586 1.0502C0.10481 1.14179 0.163472 1.22427 0.236654 1.29273L4.94365 5.99973L0.236654 10.7067C0.163334 10.7752 0.10454 10.8576 0.0637751 10.9493C0.0230105 11.0409 0.00111002 11.1398 -0.000621095 11.2401C-0.00235221 11.3403 0.0161215 11.4399 0.0536989 11.5329C0.0912763 11.6259 0.147188 11.7104 0.218103 11.7813C0.289017 11.8522 0.373482 11.9081 0.466464 11.9457C0.559446 11.9833 0.659041 12.0017 0.759314 12C0.859588 11.9983 0.958486 11.9764 1.05012 11.9356C1.14174 11.8948 1.22423 11.8361 1.29265 11.7627L5.99965 7.05573L10.7067 11.7627C10.8088 11.8721 10.9413 11.9483 11.0872 11.9814C11.2331 12.0146 11.3856 12.0032 11.525 11.9487C11.6643 11.8942 11.7841 11.7991 11.8688 11.6757C11.9534 11.5524 11.9991 11.4065 11.9999 11.2569V11.2569Z" fill="#FC9504"/>
</g>
<defs>
<clipPath id="clip0">
<rect width="12" height="12" fill="white"/>
</clipPath>
</defs>
</svg>
